<?xml version="1.0" standalone="no"?>
<!DOCTYPE svg PUBLIC "-//W3C//DTD SVG 20010904//EN"
 "http://www.w3.org/TR/2001/REC-SVG-20010904/DTD/svg10.dtd">
<svg version="1.0" xmlns="http://www.w3.org/2000/svg"
 width="799.000000pt" height="799.000000pt" viewBox="0 0 799.000000 799.000000"
 preserveAspectRatio="xMidYMid meet">
<metadata>
Created by potrace 1.11, written by Peter Selinger 2001-2013
</metadata>
<g transform="translate(0.000000,799.000000) scale(0.100000,-0.100000)"
fill="#000000" stroke="none">
<path d="M2330 4406 c-354 -255 -648 -462 -654 -460 -23 8 -909 244 -915 244
-15 0 -706 -723 -706 -738 0 -48 50 -4 374 332 342 352 343 354 375 345 17 -5
225 -61 462 -125 l432 -116 623 450 c343 247 633 455 645 462 18 11 70 -27
620 -459 329 -259 605 -471 612 -471 7 0 184 74 393 165 l381 164 454 -204
c250 -113 456 -205 459 -205 4 0 175 79 381 175 206 96 379 175 384 175 10 0
657 -479 1052 -778 208 -157 248 -180 248 -139 0 11 -1200 929 -1278 978 -17
11 -24 11 -39 -3 -19 -16 -731 -351 -748 -351 -5 0 -211 90 -456 201 -246 111
-455 202 -466 202 -10 0 -23 -4 -29 -9 -7 -7 -461 -206 -700 -307 l-32 -13
-603 474 c-332 261 -609 475 -615 475 -5 0 -300 -209 -654 -464z"/>
<path d="M2644 4096 c-3 -13 -4 -35 -2 -47 3 -24 4 -24 146 -27 l142 -3 0
-408 c0 -449 -4 -421 60 -421 64 0 60 -28 60 421 l0 408 143 3 142 3 0 45 0
45 -342 3 -343 2 -6 -24z"/>
<path d="M1905 3988 c-3 -7 -4 -189 -3 -403 l3 -390 45 0 45 0 0 400 0 400
-43 3 c-28 2 -44 -1 -47 -10z"/>
<path d="M6615 3988 c-3 -7 -4 -189 -3 -403 l3 -390 45 0 45 0 0 400 0 400
-43 3 c-28 2 -44 -1 -47 -10z"/>
<path d="M687 3946 c-96 -26 -182 -111 -212 -209 -23 -73 -30 -201 -16 -282
22 -125 72 -199 167 -245 42 -21 64 -24 154 -24 89 0 113 3 157 23 134 60 203
210 190 409 -9 139 -48 228 -126 284 -75 54 -208 72 -314 44z m184 -88 c55
-19 88 -49 117 -108 25 -51 27 -65 27 -175 0 -105 -3 -127 -24 -173 -44 -97
-120 -139 -234 -129 -82 7 -131 42 -165 115 -24 52 -27 68 -27 177 0 109 2
125 26 176 28 58 76 104 126 119 42 12 115 12 154 -2z"/>
<path d="M4723 3939 c-18 -18 -19 -719 -1 -737 17 -17 237 -15 309 2 113 26
190 92 231 196 18 45 22 77 22 175 1 112 -1 124 -28 183 -35 75 -104 142 -174
168 -62 22 -340 33 -359 13z m294 -84 c112 -33 172 -154 160 -322 -8 -117 -41
-184 -111 -227 -43 -27 -59 -31 -147 -34 l-99 -4 0 301 0 301 73 0 c40 0 96
-7 124 -15z"/>
<path d="M1464 3746 c-17 -7 -47 -28 -67 -45 l-36 -32 -3 38 c-3 37 -4 38 -43
38 l-40 0 0 -275 0 -275 45 0 45 0 5 197 5 197 30 31 c56 59 118 76 163 44 43
-30 47 -50 52 -264 l5 -205 45 0 45 0 2 200 c3 234 -7 278 -70 329 -30 24 -49
30 -95 33 -34 2 -69 -2 -88 -11z"/>
<path d="M3581 3748 c-122 -35 -190 -157 -179 -320 12 -168 120 -261 287 -245
71 6 126 33 173 85 49 55 63 101 63 212 0 109 -19 162 -76 218 -55 54 -176 77
-268 50z m153 -83 c19 -9 43 -34 57 -58 21 -36 24 -55 24 -137 0 -108 -16
-148 -76 -188 -28 -20 -43 -23 -88 -19 -47 3 -59 9 -87 40 -18 19 -38 55 -45
79 -16 58 -6 180 18 221 41 70 125 96 197 62z"/>
<path d="M4265 3742 c-22 -10 -54 -31 -72 -46 l-32 -27 -3 38 c-3 37 -4 38
-43 38 l-40 0 0 -380 0 -380 45 0 45 0 5 138 5 139 24 -26 c37 -39 101 -60
164 -53 72 9 124 48 162 122 28 55 30 66 30 169 0 102 -2 116 -28 169 -38 75
-87 110 -165 114 -41 3 -69 -2 -97 -15z m119 -83 c49 -38 61 -75 61 -184 0
-84 -4 -107 -23 -142 -40 -76 -111 -93 -179 -44 -68 49 -73 62 -73 181 1 100
2 107 28 137 60 70 136 91 186 52z"/>
<path d="M5567 3746 c-61 -22 -104 -62 -134 -123 -25 -51 -28 -69 -28 -153 0
-108 13 -156 58 -206 44 -51 100 -76 182 -82 71 -4 184 17 212 39 14 13 18 65
5 73 -5 3 -37 -4 -71 -14 -157 -49 -260 -3 -277 124 l-7 46 180 0 c212 0 209
-2 200 91 -12 133 -87 208 -214 215 -43 3 -82 -1 -106 -10z m161 -86 c35 -21
62 -72 62 -115 l0 -25 -140 0 c-158 0 -156 -1 -120 77 35 77 127 106 198 63z"/>
<path d="M6135 3747 c-81 -27 -105 -46 -105 -84 0 -33 11 -34 76 -8 133 55
224 17 224 -94 l0 -38 -92 -5 c-108 -6 -175 -32 -211 -82 -30 -43 -31 -142 -1
-182 40 -55 70 -69 143 -69 59 0 74 4 119 32 l51 31 3 -26 c3 -24 7 -27 43
-27 l40 0 0 225 c0 208 -2 228 -20 260 -12 19 -36 43 -54 54 -42 24 -159 31
-216 13z m193 -358 c-3 -57 -6 -64 -39 -91 -83 -67 -189 -36 -189 55 0 60 61
96 163 97 l68 0 -3 -61z"/>
<path d="M6967 3746 c-115 -43 -143 -171 -55 -253 12 -12 55 -36 93 -53 86
-38 115 -64 115 -102 0 -77 -109 -102 -212 -48 -48 25 -61 17 -56 -31 5 -50
57 -74 163 -74 102 0 154 26 186 93 47 96 5 176 -119 227 -82 34 -122 69 -122
106 0 63 91 88 172 49 22 -11 45 -17 49 -14 5 3 9 21 9 39 0 29 -5 37 -32 51
-44 23 -143 28 -191 10z"/>
<path d="M2114 3737 c-4 -11 172 -498 194 -537 6 -9 -4 -46 -29 -108 -21 -52
-36 -98 -33 -103 6 -11 74 -12 91 -1 17 11 276 729 269 747 -3 10 -19 15 -45
15 -46 0 -39 14 -130 -260 -28 -85 -55 -161 -59 -168 -6 -8 -36 64 -82 195
-40 114 -77 214 -83 221 -13 16 -86 16 -93 -1z"/>
</g>
</svg>
